<?xml version="1.0" encoding="UTF-8"?>
<svg version="1.1" xmlns="http://www.w3.org/2000/svg" width="128" height="128">
<path d="M0 0 C13.15598282 11.41802196 22.27936589 25.75548807 23.8046875 43.44921875 C24.98210484 62.60378872 19.13501061 78.14494854 6.96484375 92.640625 C-4.17087491 104.67096799 -19.3322834 110.7145967 -35.48046875 111.5703125 C-54.22650488 112.07535626 -69.72053298 105.36078585 -83.3828125 92.76171875 C-95.45266408 80.07226494 -100.58682306 64.02008593 -100.4140625 46.765625 C-99.25628496 29.21289051 -92.23198441 14.46224945 -79.5078125 2.359375 C-57.4669171 -15.84670245 -22.833196 -18.83911126 0 0 Z " fill="#F0B831" transform="translate(102.1953125,14.55078125)"/>
<path d="M0 0 C4.27650863 4.27650863 5.94344636 6.32419528 8.25 11.5625 C8.75015625 12.67753906 9.2503125 13.79257812 9.765625 14.94140625 C13.72035536 24.74062737 13.51206199 37.20046654 9.875 47.0625 C4.11618338 59.84739372 -4.17361553 69.66260367 -17.39453125 75.0703125 C-23.13494232 77.1186151 -27.78698929 78 -34 78 C-34 72.72 -34 67.44 -34 62 C-34.66 62 -35.32 62 -36 62 C-36 67.28 -36 72.56 -36 78 C-47.56427849 77.54351532 -56.91689298 74.22519877 -66 67 C-61.80200704 62.0555554 -57.56928915 57.16263669 -53.125 52.4375 C-52.55136719 51.78458984 -51.97773437 51.13167969 -51.38671875 50.45898438 C-49.65509348 48.64444164 -48.19368413 47.22053524 -46 46 C-43.69625982 46.03990436 -42.00300265 46.49443416 -39.85351562 47.30566406 C-35.61327643 48.89407822 -31.82831696 48.26076645 -27.625 46.9375 C-24.61733507 45.15396896 -24.61733507 45.15396896 -24.125 41.3125 C-24.08375 40.219375 -24.0425 39.12625 -24 38 C-25.48199902 38.44909061 -26.96055236 38.90956564 -28.4375 39.375 C-29.26121094 39.63023438 -30.08492187 39.88546875 -30.93359375 40.1484375 C-33.17798016 40.80882227 -33.17798016 40.80882227 -34 43 C-34.66 43 -35.32 43 -36 43 C-36.66 41.35 -37.32 39.7 -38 38 C-33.71 37.34 -29.42 36.68 -25 36 C-24.67 33.03 -24.34 30.06 -24 27 C-24.66 26.67 -25.32 26.34 -26 26 C-17.42 17.42 -8.84 8.84 0 0 Z " fill="#F4BB30" transform="translate(99,33)"/>
<path d="M0 0 C7.84071032 4.0860783 12.86788376 16.00707414 15.48925781 24.00756836 C19.15642484 37.57858104 16.94440249 52.11708453 10.81347656 64.57006836 C2.72720276 78.50670242 -8.73963851 85.98218538 -23.62792969 91.13647461 C-34.84796293 93.68592234 -46.7373652 92.73034353 -57.18652344 87.94506836 C-58.38148437 87.40172852 -58.38148437 87.40172852 -59.60058594 86.84741211 C-65.59348601 83.80977376 -70.34574192 79.55697131 -75.18652344 74.94506836 C-73.58119428 70.77617109 -70.50481917 68.18060047 -67.30371094 65.21850586 C-66.12413127 64.09345458 -64.94578333 62.96711072 -63.76855469 61.83959961 C-61.91872207 60.07610232 -60.06313447 58.32155531 -58.18505859 56.58813477 C-50.79023386 50.2294483 -50.79023386 50.2294483 -46.3828125 41.87963867 C-46.38194477 39.41788763 -46.56057354 37.31989662 -47.18652344 34.94506836 C-44.87652344 35.27506836 -42.56652344 35.60506836 -40.18652344 35.94506836 C-40.70214844 35.38819336 -41.21777344 34.83131836 -41.74902344 34.25756836 C-43.18652344 31.94506836 -43.18652344 31.94506836 -43.12402344 29.44506836 C-41.96975968 26.36703168 -40.85499278 24.87229622 -38.18652344 22.94506836 C-34.3252492 23.04160022 -32.07896226 24.48113899 -29.18652344 26.94506836 C-27.1903579 24.94890282 -27.77668916 21.12804872 -27.62402344 18.38256836 C-27.55924805 17.31619141 -27.55924805 17.31619141 -27.49316406 16.22827148 C-27.38680567 14.46744924 -27.28613498 12.70628516 -27.18652344 10.94506836 C-26.52652344 10.94506836 -25.86652344 10.94506836 -25.18652344 10.94506836 C-24.69152344 16.39006836 -24.69152344 16.39006836 -24.18652344 21.94506836 C-23.54102539 21.27338623 -22.89552734 20.6017041 -22.23046875 19.90966797 C-19.83255721 17.42660944 -17.42382658 14.95515737 -15.00683594 12.49072266 C-13.96255199 11.42127329 -12.92279675 10.3473824 -11.88769531 9.26904297 C-10.40000415 7.72078967 -8.89682117 6.189177 -7.38964844 4.65991211 C-6.48891602 3.73299561 -5.58818359 2.8060791 -4.66015625 1.85107422 C-2.18652344 -0.05493164 -2.18652344 -0.05493164 0 0 Z M-1.18652344 7.94506836 C-9.76652344 16.52506836 -18.34652344 25.10506836 -27.18652344 33.94506836 C-26.52652344 34.27506836 -25.86652344 34.60506836 -25.18652344 34.94506836 C-25.51652344 37.91506836 -25.84652344 40.88506836 -26.18652344 43.94506836 C-30.47652344 44.60506836 -34.76652344 45.26506836 -39.18652344 45.94506836 C-38.52652344 47.59506836 -37.86652344 49.24506836 -37.18652344 50.94506836 C-36.52652344 50.94506836 -35.86652344 50.94506836 -35.18652344 50.94506836 C-34.79464844 50.49131836 -34.40277344 50.03756836 -33.99902344 49.57006836 C-31.38513739 47.22658432 -28.54568715 46.76901418 -25.18652344 45.94506836 C-25.31152344 49.25756836 -25.31152344 49.25756836 -26.18652344 52.94506836 C-30.42964697 56.07689763 -34.02254221 56.39023915 -39.18652344 55.94506836 C-40.95382813 55.13489258 -40.95382813 55.13489258 -42.75683594 54.30834961 C-44.88415358 53.63812107 -44.88415358 53.63812107 -47.18652344 53.94506836 C-51.24149509 56.69746971 -54.39265629 60.21500737 -57.68652344 63.82006836 C-58.61124206 64.79497305 -59.53830542 65.76765941 -60.46777344 66.73803711 C-62.73139044 69.11955083 -64.96853904 71.52112827 -67.18652344 73.94506836 C-60.82184223 80.54931712 -52.18763772 84.3931521 -43.18652344 85.94506836 C-41.20652344 85.94506836 -39.22652344 85.94506836 -37.18652344 85.94506836 C-37.18652344 80.66506836 -37.18652344 75.38506836 -37.18652344 69.94506836 C-36.52652344 69.94506836 -35.86652344 69.94506836 -35.18652344 69.94506836 C-35.18652344 75.22506836 -35.18652344 80.50506836 -35.18652344 85.94506836 C-21.28023123 85.13890649 -10.23974752 80.41600202 -0.49902344 70.38256836 C9.40156578 58.95614402 11.59348035 46.69004195 10.99267578 32.12426758 C10.29926087 23.69181326 5.68147552 15.70463262 0.81347656 8.94506836 C-0.17652344 8.45006836 -0.17652344 8.45006836 -1.18652344 7.94506836 Z " fill="#51421C" transform="translate(100.1865234375,25.054931640625)"/>
<path d="M0 0 C1.48206495 0.254496 2.96068615 0.52911762 4.4375 0.8125 C5.67306641 1.03873047 5.67306641 1.03873047 6.93359375 1.26953125 C7.95646484 1.63111328 7.95646484 1.63111328 9 2 C9.33 2.99 9.66 3.98 10 5 C10.66 5 11.32 5 12 5 C12.33 4.01 12.66 3.02 13 2 C15.06640625 1.26953125 15.06640625 1.26953125 17.5625 0.8125 C18.38878906 0.65394531 19.21507813 0.49539062 20.06640625 0.33203125 C21.02353516 0.16767578 21.02353516 0.16767578 22 0 C22.37692389 3.9200085 22.5907625 6.17715224 20.25 9.4375 C15.23323768 11.84940496 10.46232046 11.73183023 5 11 C1.75 9.4375 1.75 9.4375 0 7 C-0.3125 3.25 -0.3125 3.25 0 0 Z " fill="#56451C" transform="translate(53,81)"/>
<path d="M0 0 C1.9375 0.8125 1.9375 0.8125 3.9375 3.8125 C3.6133631 7.13490324 3.32973697 8.42026303 0.9375 10.8125 C-2 11.1875 -2 11.1875 -5.0625 10.8125 C-6.9375 9 -6.9375 9 -8.0625 6.8125 C-8.0625 5.8225 -8.0625 4.8325 -8.0625 3.8125 C-7.0725 3.8125 -6.0825 3.8125 -5.0625 3.8125 C-4.7325 5.1325 -4.4025 6.4525 -4.0625 7.8125 C-2.7425 7.8125 -1.4225 7.8125 -0.0625 7.8125 C0.2675 6.1625 0.5975 4.5125 0.9375 2.8125 C-0.3825 3.8025 -1.7025 4.7925 -3.0625 5.8125 C-3.7225 4.4925 -4.3825 3.1725 -5.0625 1.8125 C-2.0625 -0.1875 -2.0625 -0.1875 0 0 Z " fill="#6A551F" transform="translate(26.0625,80.1875)"/>
<path d="M0 0 C3.7952131 1.49097658 5.61042731 3.75700849 8 7 C7.67 7.66 7.34 8.32 7 9 C1.25 8.125 1.25 8.125 -1 7 C-0.2575 7.928125 -0.2575 7.928125 0.5 8.875 C2 11 2 11 2 13 C-1.33523252 11.61990379 -3.18607951 10.15049348 -5 7 C-4.67 6.01 -4.34 5.02 -4 4 C-1.69 4.33 0.62 4.66 3 5 C2.2575 4.319375 2.2575 4.319375 1.5 3.625 C0 2 0 2 0 0 Z " fill="#58471C" transform="translate(33,21)"/>
<path d="M0 0 C2.31 0 4.62 0 7 0 C7.33 1.65 7.66 3.3 8 5 C7.34 5 6.68 5 6 5 C6.66 6.65 7.32 8.3 8 10 C7.01 10 6.02 10 5 10 C4.67 8.68 4.34 7.36 4 6 C3.34 6 2.68 6 2 6 C2 7.32 2 8.64 2 10 C1.34 10 0.68 10 0 10 C0 6.7 0 3.4 0 0 Z " fill="#52421C" transform="translate(61,12)"/>
<path d="M0 0 C2.4375 0.8125 2.4375 0.8125 5 2 C5.33 2.99 5.66 3.98 6 5 C3.525 4.01 3.525 4.01 1 3 C1.495 3.45375 1.99 3.9075 2.5 4.375 C4 6 4 6 4 8 C2.35 7.67 0.7 7.34 -1 7 C-0.505 7.45375 -0.01 7.9075 0.5 8.375 C2 10 2 10 2 12 C-2.75 10.125 -2.75 10.125 -5 9 C-3.7508258 5.54074837 -2.32472205 2.85306797 0 0 Z " fill="#604D1E" transform="translate(88,19)"/>
<path d="M0 0 C2.31 0.33 4.62 0.66 7 1 C7 1.66 7 2.32 7 3 C5.35 2.67 3.7 2.34 2 2 C2.33 2.66 2.66 3.32 3 4 C3.99 4.33 4.98 4.66 6 5 C6 5.66 6 6.32 6 7 C4.68 7.33 3.36 7.66 2 8 C2.99 8.33 3.98 8.66 5 9 C5 9.66 5 10.32 5 11 C2.69 10.67 0.38 10.34 -2 10 C-1.54177532 6.53058454 -1.10868317 3.32604951 0 0 Z " fill="#634F1E" transform="translate(75,14)"/>
<path d="M0 0 C6.0546875 -0.1953125 6.0546875 -0.1953125 8 0 C10 2 10 2 10.25 4.5 C10 7 10 7 8 9 C5.31160615 9.26991906 2.70858064 9.08737357 0 9 C0 8.34 0 7.68 0 7 C3.465 6.505 3.465 6.505 7 6 C7.33 5.01 7.66 4.02 8 3 C5.36 3 2.72 3 0 3 C0 2.01 0 1.02 0 0 Z " fill="#5E4B1D" transform="translate(13,57)"/>
<path d="M0 0 C0.66 0 1.32 0 2 0 C1.67 1.32 1.34 2.64 1 4 C2.32 3.34 3.64 2.68 5 2 C4.67 3.65 4.34 5.3 4 7 C4.680625 6.2575 4.680625 6.2575 5.375 5.5 C7 4 7 4 9 4 C7.92598892 6.91517292 7.22189824 8.77810176 5 11 C2.36 9.35 -0.28 7.7 -3 6 C-1.125 1.125 -1.125 1.125 0 0 Z " fill="#5D4A1D" transform="translate(22,33)"/>
<path d="M0 0 C1.175625 0.33 2.35125 0.66 3.5625 1 C9.18879206 2.40160279 14.35702566 2.36799378 20 1 C20 1.66 20 2.32 20 3 C18.865625 3.28875 17.73125 3.5775 16.5625 3.875 C15.386875 4.24625 14.21125 4.6175 13 5 C12.67 5.66 12.34 6.32 12 7 C11.34 7 10.68 7 10 7 C9.67 6.34 9.34 5.68 9 5 C6.65613191 4.08968728 6.65613191 4.08968728 3.9375 3.375 C3.01839844 3.11460938 2.09929688 2.85421875 1.15234375 2.5859375 C0.08693359 2.29589844 0.08693359 2.29589844 -1 2 C-0.67 1.34 -0.34 0.68 0 0 Z " fill="#E2AF2E" transform="translate(53,79)"/>
<path d="M0 0 C0.66 0 1.32 0 2 0 C2.33 0.99 2.66 1.98 3 3 C6.00847418 4.22520264 6.00847418 4.22520264 9 5 C9 5.66 9 6.32 9 7 C6.03 6.67 3.06 6.34 0 6 C0 6.66 0 7.32 0 8 C-0.66 8 -1.32 8 -2 8 C-1.125 1.125 -1.125 1.125 0 0 Z " fill="#67521E" transform="translate(16,44)"/>
<path d="M0 0 C0 0.66 0 1.32 0 2 C-1.32 2 -2.64 2 -4 2 C-4 2.99 -4 3.98 -4 5 C-2.35 4.67 -0.7 4.34 1 4 C1 4.66 1 5.32 1 6 C-0.32 6 -1.64 6 -3 6 C-3 7.65 -3 9.3 -3 11 C-3.66 11 -4.32 11 -5 11 C-5.33 7.7 -5.66 4.4 -6 1 C-3 0 -3 0 0 0 Z " fill="#57461C" transform="translate(55,13)"/>
<path d="M0 0 C0.99 0.33 1.98 0.66 3 1 C3 2.65 3 4.3 3 6 C0.03 6.66 -2.94 7.32 -6 8 C-6 7.01 -6 6.02 -6 5 C-2.535 4.505 -2.535 4.505 1 4 C0.67 2.68 0.34 1.36 0 0 Z " fill="#64501E" transform="translate(21,70)"/>
<path d="M0 0 C-1.7015625 0.433125 -1.7015625 0.433125 -3.4375 0.875 C-4.613125 1.24625 -5.78875 1.6175 -7 2 C-7.33 2.66 -7.66 3.32 -8 4 C-8.66 4 -9.32 4 -10 4 C-10.66 2.35 -11.32 0.7 -12 -1 C-3.42857143 -2.42857143 -3.42857143 -2.42857143 0 0 Z " fill="#DAA92D" transform="translate(73,72)"/>
<path d="M0 0 C0.598125 0.20625 1.19625 0.4125 1.8125 0.625 C2.1425 2.275 2.4725 3.925 2.8125 5.625 C2.1525 5.295 1.4925 4.965 0.8125 4.625 C0.8125 3.965 0.8125 3.305 0.8125 2.625 C-0.5075 3.615 -1.8275 4.605 -3.1875 5.625 C-3.8475 4.305 -4.5075 2.985 -5.1875 1.625 C-2.1875 -0.375 -2.1875 -0.375 0 0 Z " fill="#5C4A1D" transform="translate(26.1875,80.375)"/>
<path d="M0 0 C0.99 0 1.98 0 3 0 C3 1.65 3 3.3 3 5 C1.35 5.33 -0.3 5.66 -2 6 C-2 4.68 -2 3.36 -2 2 C-1.34 1.67 -0.68 1.34 0 1 C0 0.67 0 0.34 0 0 Z " fill="#E2AE2E" transform="translate(24,83)"/>
<path d="M0 0 C-0.33 1.32 -0.66 2.64 -1 4 C-2.65 3.67 -4.3 3.34 -6 3 C-6 2.01 -6 1.02 -6 0 C-3 -1 -3 -1 0 0 Z " fill="#8D6F23" transform="translate(69,13)"/>
<path d="M0 0 C2.31 0.33 4.62 0.66 7 1 C7 1.66 7 2.32 7 3 C5.35 2.67 3.7 2.34 2 2 C1.67 2.66 1.34 3.32 1 4 C0.67 2.68 0.34 1.36 0 0 Z " fill="#57461C" transform="translate(75,14)"/>
</svg>
