<?xml version="1.0" encoding="UTF-8"?>
<svg version="1.1" xmlns="http://www.w3.org/2000/svg" width="160" height="160">
<path d="M0 0 C2.71003427 -0.1358035 5.41318941 -0.23444624 8.125 -0.3125 C8.88554687 -0.35439453 9.64609375 -0.39628906 10.4296875 -0.43945312 C14.54564334 -0.52815907 17.17431773 -0.30797029 20.44140625 2.33203125 C26.52622463 8.676964 27.09958355 15.0508701 26.94140625 23.41601562 C26.8975982 25.24435765 26.84569029 27.07252594 26.78515625 28.90039062 C26.65957312 36.8064192 27.94936747 43.91510089 32.1875 50.6875 C34.25360175 54.46347907 34.42403885 56.75961154 34 61 C33.67 61.33 33.34 61.66 33 62 C33.03333214 64.0423511 33.10303422 66.08412407 33.1875 68.125 C33.28402639 91.96701925 19.33624617 116.56274818 2.91796875 133.171875 C-14.36821625 150.09289847 -34.26874749 157.64716649 -58.29345703 157.47558594 C-67.65879808 157.22837897 -76.10413979 155.87751926 -85 153 C-86.17820313 152.62617188 -87.35640625 152.25234375 -88.5703125 151.8671875 C-101.95481354 147.17795396 -117.33638394 136.86767239 -124 124 C-124.52018343 120.59563118 -124.74109101 117.37813984 -124 114 C-120.19549037 111.46366025 -118.53954193 111.63792288 -114 112 C-110.7136856 112.83389425 -107.52466655 113.91931099 -104.3125 115 C-91.88929854 118.91276596 -82.13993156 119.50090649 -70 114 C-53.51239387 105.09783766 -45.93893306 82.42204336 -39.11987305 66.09521484 C-33.58660368 53.10011899 -27.02345243 41.65303817 -14.11328125 35.140625 C-11.93103037 34.05174564 -11.93103037 34.05174564 -10.01953125 32.359375 C-7.53245901 30.68529156 -6.32700382 30.76922446 -3.375 31 C2.22304283 31.18191572 6.76670627 29.86505681 12 28 C13.5159375 27.5359375 13.5159375 27.5359375 15.0625 27.0625 C17.15872317 26.19726901 17.15872317 26.19726901 17.60546875 24.20703125 C18.75091839 17.79931794 18.52674513 12.6427922 15 7 C13.85958201 5.63329691 13.85958201 5.63329691 10.8125 5.875 C7.43126075 5.9858603 4.31402301 6.35336136 1 7 C-0.0625 4.625 -0.0625 4.625 -1 2 C-0.67 1.34 -0.34 0.68 0 0 Z " fill="#E75253" transform="translate(125,2)"/>
<path d="M0 0 C2.71003427 -0.1358035 5.41318941 -0.23444624 8.125 -0.3125 C8.88554687 -0.35439453 9.64609375 -0.39628906 10.4296875 -0.43945312 C14.54564334 -0.52815907 17.17431773 -0.30797029 20.44140625 2.33203125 C26.52622463 8.676964 27.09958355 15.0508701 26.94140625 23.41601562 C26.8975982 25.24435765 26.84569029 27.07252594 26.78515625 28.90039062 C26.65957312 36.8064192 27.94936747 43.91510089 32.1875 50.6875 C34.25360175 54.46347907 34.42403885 56.75961154 34 61 C33.67 61.33 33.34 61.66 33 62 C33.03333214 64.0423511 33.10303422 66.08412407 33.1875 68.125 C33.28402639 91.96701925 19.33624617 116.56274818 2.91796875 133.171875 C-14.36821625 150.09289847 -34.26874749 157.64716649 -58.29345703 157.47558594 C-67.65879808 157.22837897 -76.10413979 155.87751926 -85 153 C-86.17820313 152.62617188 -87.35640625 152.25234375 -88.5703125 151.8671875 C-101.95481354 147.17795396 -117.33638394 136.86767239 -124 124 C-124.52018343 120.59563118 -124.74109101 117.37813984 -124 114 C-120.19549037 111.46366025 -118.53954193 111.63792288 -114 112 C-110.7136856 112.83389425 -107.52466655 113.91931099 -104.3125 115 C-91.88929854 118.91276596 -82.13993156 119.50090649 -70 114 C-53.51239387 105.09783766 -45.93893306 82.42204336 -39.11987305 66.09521484 C-33.58660368 53.10011899 -27.02345243 41.65303817 -14.11328125 35.140625 C-11.93103037 34.05174564 -11.93103037 34.05174564 -10.01953125 32.359375 C-7.53245901 30.68529156 -6.32700382 30.76922446 -3.375 31 C2.22304283 31.18191572 6.76670627 29.86505681 12 28 C13.5159375 27.5359375 13.5159375 27.5359375 15.0625 27.0625 C17.15872317 26.19726901 17.15872317 26.19726901 17.60546875 24.20703125 C18.75091839 17.79931794 18.52674513 12.6427922 15 7 C13.85958201 5.63329691 13.85958201 5.63329691 10.8125 5.875 C7.43126075 5.9858603 4.31402301 6.35336136 1 7 C-0.0625 4.625 -0.0625 4.625 -1 2 C-0.67 1.34 -0.34 0.68 0 0 Z M-9.5859375 41.9453125 C-13.06366981 42.02839825 -15.16082424 42.1799835 -17.7109375 44.671875 C-18.74444754 46.06737586 -19.7304893 47.49919268 -20.66796875 48.9609375 C-22 51 -22 51 -24.5625 53.375 C-28.04075875 57.12081712 -29.85118474 61.39924508 -32 66 C-32.80730419 67.62758754 -33.61977915 69.25262093 -34.4375 70.875 C-35.05044922 72.10283203 -35.05044922 72.10283203 -35.67578125 73.35546875 C-36.62742837 75.25595578 -37.58371181 77.15412385 -38.54296875 79.05078125 C-41.6522113 85.20050097 -41.6522113 85.20050097 -44.4375 91.5 C-49.43677238 102.69837014 -56.45807654 115.72093791 -68.3125 120.625 C-71.49841803 121.688728 -74.7006047 122.3809984 -78 123 C-78 123.66 -78 124.32 -78 125 C-83.61 124.67 -89.22 124.34 -95 124 C-95 123.34 -95 122.68 -95 122 C-95.98742187 121.79503906 -96.97484375 121.59007813 -97.9921875 121.37890625 C-99.27351563 121.10949219 -100.55484375 120.84007813 -101.875 120.5625 C-103.15117188 120.29566406 -104.42734375 120.02882813 -105.7421875 119.75390625 C-109 119 -109 119 -111 118 C-112.37342831 117.9310528 -113.75002102 117.91532292 -115.125 117.9375 C-116.40375 117.958125 -117.6825 117.97875 -119 118 C-118.10470689 123.08078838 -115.06959387 126.01258277 -111 129 C-108.79403793 129.73799458 -106.71646036 130.11204977 -104.41625977 130.43774414 C-101.83237951 131.03900475 -100.31161912 131.94467036 -98.11328125 133.40234375 C-91.9652169 136.92855124 -85.50542739 137.56919106 -78.5625 138.4375 C-77.30373047 138.62248047 -76.04496094 138.80746094 -74.74804688 138.99804688 C-67.49772941 139.9624866 -61.02304731 140.33714792 -54 138 C-53.67 137.67 -53.34 137.34 -53 137 C-50.66702567 136.95907063 -48.33294775 136.95758277 -46 137 C-46.66 137.99 -47.32 138.98 -48 140 C-46.4243434 141.41744763 -46.4243434 141.41744763 -44 142 C-40.78288376 140.43142389 -40.78288376 140.43142389 -38.734375 139.0859375 C-36.59075128 137.74375869 -34.3607703 136.89326444 -32 136 C-31.34 135.649375 -30.68 135.29875 -30 134.9375 C-28 134 -28 134 -25.6875 133.75 C-22.24951451 132.79056219 -20.50528817 130.99620933 -17.90234375 128.62109375 C-15.38078162 126.47232931 -12.65412184 124.83869891 -9.796875 123.17578125 C-7.01818085 121.35754878 -5.32983248 119.55535896 -3.62890625 116.69140625 C-1.34349948 112.91527852 1.53825084 109.69929449 4.41601562 106.37304688 C6.68446282 103.71126654 8.62827731 101.23168565 10 98 C9.34 97.01 8.68 96.02 8 95 C8.61875 94.278125 9.2375 93.55625 9.875 92.8125 C12.59263868 89.21562528 14 86.52854666 14 82 C16.83330714 76.10181736 21.25532495 71.08144193 25.42578125 66.1015625 C27.19984128 64.17084465 27.19984128 64.17084465 27 62 C26.01 62 25.02 62 24 62 C23.89042969 61.38511719 23.78085938 60.77023438 23.66796875 60.13671875 C23.50941406 59.32847656 23.35085937 58.52023438 23.1875 57.6875 C23.03667969 56.88699219 22.88585937 56.08648437 22.73046875 55.26171875 C21.89345737 52.67011667 21.21890729 51.57340699 19 50 C16.71669899 49.63853543 16.71669899 49.63853543 14.3125 49.8125 C13.50425781 49.83957031 12.69601563 49.86664063 11.86328125 49.89453125 C11.24839844 49.92933594 10.63351563 49.96414062 10 50 C8.99088542 48.20963542 7.98177083 46.41927083 6.97265625 44.62890625 C6.1027487 43.02121854 6.1027487 43.02121854 5 42 C0.13750709 41.73161565 -4.72053994 42.0482061 -9.5859375 41.9453125 Z " fill="#741A17" transform="translate(125,2)"/>
<path d="M0 0 C2.71003427 -0.1358035 5.41318941 -0.23444624 8.125 -0.3125 C8.88554687 -0.35439453 9.64609375 -0.39628906 10.4296875 -0.43945312 C14.54564334 -0.52815907 17.17431773 -0.30797029 20.44140625 2.33203125 C26.52622463 8.676964 27.09958355 15.0508701 26.94140625 23.41601562 C26.8975982 25.24435765 26.84569029 27.07252594 26.78515625 28.90039062 C26.65957312 36.8064192 27.94936747 43.91510089 32.1875 50.6875 C34.26149842 54.47791091 34.41728815 56.74366088 34 61 C33.505 61.99 33.505 61.99 33 63 C31.68 63 30.36 63 29 63 C28.96261719 63.61488281 28.92523438 64.22976562 28.88671875 64.86328125 C28.82097656 65.67152344 28.75523437 66.47976562 28.6875 67.3125 C28.60048828 68.51326172 28.60048828 68.51326172 28.51171875 69.73828125 C27.90424461 72.42322421 26.96593365 73.14796175 25 75 C24.13402922 77.02460761 23.50085274 79.05977427 22.84375 81.16015625 C22 83 22 83 19 85 C17.88570915 86.7077491 17.88570915 86.7077491 17 88.6875 C16.65839844 89.3990625 16.31679687 90.110625 15.96484375 90.84375 C15.10463391 92.76616228 14.32745045 94.72523581 13.5625 96.6875 C11.6083206 100.83036033 9.15034417 103.92482791 5 106 C6.33333333 103.33333333 7.66666667 100.66666667 9 98 C8.01 97.505 8.01 97.505 7 97 C8.00444511 94.97753621 9.01918456 92.96352132 10.0703125 90.96484375 C10.41835937 90.29582031 10.76640625 89.62679687 11.125 88.9375 C11.47820312 88.26589844 11.83140625 87.59429687 12.1953125 86.90234375 C13.19478915 84.88375911 13.19478915 84.88375911 13 82 C14.05859375 80.0625 14.05859375 80.0625 15.4375 78 C17.04312154 75.58470606 18.07237414 73.78287757 19 71 C20.64488294 69.31183067 22.31337542 67.64646685 24 66 C25.02813611 64.68824014 26.04084432 63.3630107 27 62 C26.01 62 25.02 62 24 62 C23.72285156 61.28972656 23.44570312 60.57945313 23.16015625 59.84765625 C22.79792969 58.92855469 22.43570313 58.00945313 22.0625 57.0625 C21.70285156 56.14597656 21.34320313 55.22945312 20.97265625 54.28515625 C20.2003782 52.07581467 20.2003782 52.07581467 19 51 C17.58251465 51.13764837 16.16597727 51.28511834 14.75 51.4375 C12.25390625 51.49609375 12.25390625 51.49609375 10 51 C8.71484375 49.22265625 8.71484375 49.22265625 7.6875 47 C6.65172974 44.7453695 6.65172974 44.7453695 5 43 C0.92715468 42.13024658 -2.88547965 42.57598454 -7 43 C-8.27230469 42.98646484 -8.27230469 42.98646484 -9.5703125 42.97265625 C-13.09436108 43.014467 -15.16580233 43.18446447 -17.74609375 45.70703125 C-19.26660809 47.75081487 -20.62508494 49.85699967 -22 52 C-23.0209375 52.928125 -23.0209375 52.928125 -24.0625 53.875 C-26.69972867 56.76744435 -28.11148527 60.02994865 -29.75390625 63.5625 C-30.9671852 65.93581055 -32.3399725 67.92135687 -34 70 C-33.96973815 62.88846638 -32.44190241 58.22444953 -28.47265625 52.32421875 C-26.91748535 50.02935712 -26.91748535 50.02935712 -25.9609375 47.37890625 C-24.64195985 44.11363231 -22.62296604 42.30309213 -20 40 C-18.515 39.505 -18.515 39.505 -17 39 C-16.67 38.01 -16.34 37.02 -16 36 C-13.625 34.4375 -13.625 34.4375 -11 33 C-10.01 32.34 -9.02 31.68 -8 31 C-5.87109375 30.91015625 -5.87109375 30.91015625 -3.4375 31.0625 C2.1657887 31.18537914 6.76144116 29.8669332 12 28 C13.010625 27.690625 14.02125 27.38125 15.0625 27.0625 C17.15872317 26.19726901 17.15872317 26.19726901 17.60546875 24.20703125 C18.75091839 17.79931794 18.52674513 12.6427922 15 7 C13.85958201 5.63329691 13.85958201 5.63329691 10.8125 5.875 C7.43126075 5.9858603 4.31402301 6.35336136 1 7 C-0.0625 4.625 -0.0625 4.625 -1 2 C-0.67 1.34 -0.34 0.68 0 0 Z " fill="#BD302E" transform="translate(125,2)"/>
<path d="M0 0 C-1.26467795 3.79403384 -2.61697513 4.06684293 -6 6 C-8.85767767 8.19821359 -9.85798743 10.78888852 -11.171875 14.1015625 C-12.02915514 16.06683677 -13.05849623 17.80428266 -14.1875 19.625 C-16.06633442 23.12351926 -16.09233214 24.21438236 -16 28 C-16.91244301 30.73732903 -17.89862472 33.33982342 -19 36 C-19.3403125 36.86496094 -19.680625 37.72992188 -20.03125 38.62109375 C-34.77629379 75.33426021 -34.77629379 75.33426021 -49.5 83.36328125 C-50.325 83.67652344 -51.15 83.98976563 -52 84.3125 C-52.825 84.63863281 -53.65 84.96476562 -54.5 85.30078125 C-57.11682893 86.03267559 -59.29681086 86.13033233 -62 86 C-62 86.66 -62 87.32 -62 88 C-73.52164009 88.18451025 -73.52164009 88.18451025 -79 87 C-79 86.34 -79 85.68 -79 85 C-80.10408203 84.92652344 -80.10408203 84.92652344 -81.23046875 84.8515625 C-82.69419922 84.73941406 -82.69419922 84.73941406 -84.1875 84.625 C-85.15042969 84.55539063 -86.11335938 84.48578125 -87.10546875 84.4140625 C-90.03153338 83.99548915 -92.28366231 83.12886761 -95 82 C-97.66572015 81.50686503 -100.29815717 81.27476368 -103 81 C-103.33 81.99 -103.66 82.98 -104 84 C-104.66 83.34 -105.32 82.68 -106 82 C-105.625 79.875 -105.625 79.875 -105 78 C-105.99 77.67 -106.98 77.34 -108 77 C-104.19549037 74.46366025 -102.53954193 74.63792288 -98 75 C-94.7136856 75.83389425 -91.52466655 76.91931099 -88.3125 78 C-75.88929854 81.91276596 -66.13993156 82.50090649 -54 77 C-37.51239387 68.09783766 -29.93893306 45.42204336 -23.11987305 29.09521484 C-10.7312256 0 -10.7312256 0 0 0 Z " fill="#B92926" transform="translate(109,39)"/>
<path d="M0 0 C1 2 1 2 0.0625 5.1875 C-2.1270382 9.99453159 -5.96339364 12.75629846 -10 16 C-11.40209629 17.20106042 -12.7980999 18.40927491 -14.1875 19.625 C-14.85265625 20.20378906 -15.5178125 20.78257812 -16.203125 21.37890625 C-17.67635367 22.70801472 -19.06998247 24.12485337 -20.4375 25.5625 C-26.21727141 31.06033134 -32.08995058 34.4413211 -39.8359375 36.359375 C-42.26323314 36.96192433 -42.26323314 36.96192433 -45 39 C-62.8648285 44.69681301 -88.42221769 41.96117131 -105.1875 34.125 C-109.50103512 31.62138386 -112.14813413 29.06174837 -115 25 C-115.928125 24.113125 -116.85625 23.22625 -117.8125 22.3125 C-120 20 -120 20 -120 17 C-119.360625 17.78375 -118.72125 18.5675 -118.0625 19.375 C-115.14601597 22.31613038 -112.46581504 22.71722807 -108.47900391 23.37426758 C-105.8911953 24.0274637 -104.31687026 24.94548311 -102.10546875 26.41015625 C-95.96102323 29.93050393 -89.49949199 30.56993337 -82.5625 31.4375 C-81.30373047 31.62248047 -80.04496094 31.80746094 -78.74804688 31.99804688 C-71.49772941 32.9624866 -65.02304731 33.33714792 -58 31 C-57.505 30.505 -57.505 30.505 -57 30 C-54.32941149 29.85884839 -51.67567762 29.95752893 -49 30 C-49.66 31.32 -50.32 32.64 -51 34 C-49.515 34.495 -49.515 34.495 -48 35 C-46.23664871 34.05301505 -44.47625881 33.09637645 -42.76953125 32.05078125 C-40.60083466 30.76296805 -38.35557917 29.89130023 -36 29 C-35.34 28.649375 -34.68 28.29875 -34 27.9375 C-32 27 -32 27 -29.6875 26.75 C-26.24208592 25.78848909 -24.49343031 23.98935346 -21.890625 21.6015625 C-19.99205741 19.99327177 -18.10336002 18.84019627 -15.9375 17.625 C-12.14092221 15.34266422 -9.95519947 12.68594758 -7.453125 9.0703125 C-5.19205532 5.84889602 -2.59011656 2.96013322 0 0 Z " fill="#A31E1F" transform="translate(129,108)"/>
<path d="M0 0 C1.32 0 2.64 0 4 0 C3.70480469 0.57105469 3.40960938 1.14210938 3.10546875 1.73046875 C2.05018361 3.89697288 1.17150385 6.06198764 0.3125 8.3125 C-1.69881872 13.40834109 -4.00482124 18.34729273 -6.34667969 23.29638672 C-9.08876866 29.11999081 -11.58832745 35.03194396 -14 41 C-14.66 41 -15.32 41 -16 41 C-16.11601562 42.32837891 -16.11601562 42.32837891 -16.234375 43.68359375 C-17.13937659 47.60372819 -18.4891836 49.17826962 -21.25 52.0625 C-22.06984375 52.92746094 -22.8896875 53.79242188 -23.734375 54.68359375 C-24.48203125 55.44800781 -25.2296875 56.21242187 -26 57 C-27.2375 58.299375 -27.2375 58.299375 -28.5 59.625 C-32.24796703 63.18556868 -36.07630565 66.6339881 -40 70 C-40.62777344 70.54011719 -41.25554687 71.08023438 -41.90234375 71.63671875 C-49.4651499 77.72853512 -58.62074345 81.65518586 -68 84 C-69.2065625 84.495 -69.2065625 84.495 -70.4375 85 C-72.64309553 85.86072021 -74.78288195 86.56081533 -77.0625 87.1875 C-77.71347656 87.36667969 -78.36445312 87.54585938 -79.03515625 87.73046875 C-81 88 -81 88 -82.80859375 87.48828125 C-85.15157674 86.82368069 -85.15157674 86.82368069 -88.16015625 87.515625 C-92.84108763 88.10609854 -96.81748087 87.53529316 -101.4375 86.75 C-102.24509766 86.62753906 -103.05269531 86.50507813 -103.88476562 86.37890625 C-109.24166682 85.50695295 -113.97608964 84.05340079 -119 82 C-119 81.67 -119 81.34 -119 81 C-114.37401671 80.82207757 -110.28974857 81.08431208 -105.75 82 C-93.40365382 84.1806126 -79.82837463 84.47950662 -68 80 C-67.31292969 79.77183594 -66.62585938 79.54367188 -65.91796875 79.30859375 C-57.41799186 76.37467668 -50.51294005 73.19744951 -45 66 C-43.61573469 65.09861794 -42.2292815 64.19959088 -40.81640625 63.34375 C-37.21933198 60.68268861 -34.25213552 57.27648149 -31.171875 54.046875 C-29 52 -29 52 -27 52 C-26.84144531 51.39671875 -26.68289062 50.7934375 -26.51953125 50.171875 C-24.95925793 44.82729237 -23.6738406 42.27168842 -19 39 C-16.37720811 35.26756538 -14.76514353 31.19221589 -13 27 C-10.28915663 21.14457831 -10.28915663 21.14457831 -8 20 C-6.87293294 17.88984046 -6.87293294 17.88984046 -5.875 15.4375 C-5.52179688 14.61121094 -5.16859375 13.78492187 -4.8046875 12.93359375 C-4.53914063 12.29550781 -4.27359375 11.65742187 -4 11 C-3.34 11 -2.68 11 -2 11 C-1.34 7.37 -0.68 3.74 0 0 Z " fill="#881D1C" transform="translate(154,65)"/>
<path d="M0 0 C0.12117188 0.90363281 0.24234375 1.80726562 0.3671875 2.73828125 C0.61855469 4.50751953 0.61855469 4.50751953 0.875 6.3125 C1.11863281 8.07013672 1.11863281 8.07013672 1.3671875 9.86328125 C1.82300621 13.14530895 1.82300621 13.14530895 4 16 C5.53510886 21.32773074 6.40992288 26.49261353 7 32 C6.01 32 5.02 32 4 32 C3.505 30.515 3.505 30.515 3 29 C2.34 28.67 1.68 28.34 1 28 C0.375 25.9375 0.375 25.9375 0 24 C-0.68707031 23.87882812 -1.37414062 23.75765625 -2.08203125 23.6328125 C-2.98308594 23.46523438 -3.88414062 23.29765625 -4.8125 23.125 C-5.70582031 22.96257813 -6.59914062 22.80015625 -7.51953125 22.6328125 C-11.04847349 21.73251542 -12.67877216 20.5065516 -14.625 17.4375 C-15.305625 16.2309375 -15.305625 16.2309375 -16 15 C-16.98407311 13.79504091 -16.98407311 13.79504091 -18.85766602 13.88647461 C-19.64842529 13.89171143 -20.43918457 13.89694824 -21.25390625 13.90234375 C-22.53491211 13.90717773 -22.53491211 13.90717773 -23.84179688 13.91210938 C-25.18854492 13.92467773 -25.18854492 13.92467773 -26.5625 13.9375 C-27.46419922 13.94201172 -28.36589844 13.94652344 -29.29492188 13.95117188 C-31.53001314 13.96299775 -33.76497437 13.9794778 -36 14 C-36 11 -36 11 -34 8 C-31.6809082 7.35571289 -31.6809082 7.35571289 -28.80078125 6.97265625 C-27.75599609 6.81990234 -26.71121094 6.66714844 -25.63476562 6.50976562 C-23.4396216 6.21424065 -21.24431142 5.91994701 -19.04882812 5.62695312 C-12.67361154 4.69275523 -5.80364952 0 0 0 Z " fill="#ADC76F" transform="translate(148,29)"/>
<path d="M0 0 C2.71003427 -0.1358035 5.41318941 -0.23444624 8.125 -0.3125 C8.88554687 -0.35439453 9.64609375 -0.39628906 10.4296875 -0.43945312 C14.54564334 -0.52815907 17.17431773 -0.30797029 20.44140625 2.33203125 C26.52622463 8.676964 27.09958355 15.0508701 26.94140625 23.41601562 C26.8975982 25.24435765 26.84569029 27.07252594 26.78515625 28.90039062 C26.65957312 36.8064192 27.94936747 43.91510089 32.1875 50.6875 C34.24539058 54.44847244 34.34455242 56.77923288 34 61 C31.69 61 29.38 61 27 61 C26.34 59.02 25.68 57.04 25 55 C25.99 55.495 25.99 55.495 27 56 C27 56.99 27 57.98 27 59 C27.99 59 28.98 59 30 59 C29.38221953 56.39392608 28.75612789 53.79034303 28.125 51.1875 C27.95097656 50.44951172 27.77695313 49.71152344 27.59765625 48.95117188 C26.75507489 45.50282963 25.98714425 42.98071638 24 40 C22.76265658 35.66929802 22.92430216 31.46617275 23 27 C22.09121094 27.50660156 22.09121094 27.50660156 21.1640625 28.0234375 C10.40253921 33.75187913 0.00016304 34.39199174 -12 35 C-8.64189189 31.08220721 -8.64189189 31.08220721 -5.7734375 30.71484375 C-4.98195313 30.78832031 -4.19046875 30.86179687 -3.375 30.9375 C2.24491263 31.17823481 6.7459904 29.87243959 12 28 C13.5159375 27.5359375 13.5159375 27.5359375 15.0625 27.0625 C17.15872317 26.19726901 17.15872317 26.19726901 17.60546875 24.20703125 C18.75091839 17.79931794 18.52674513 12.6427922 15 7 C13.85958201 5.63329691 13.85958201 5.63329691 10.8125 5.875 C7.43126075 5.9858603 4.31402301 6.35336136 1 7 C-0.0625 4.625 -0.0625 4.625 -1 2 C-0.67 1.34 -0.34 0.68 0 0 Z " fill="#5B9B1C" transform="translate(125,2)"/>
<path d="M0 0 C0 0.99 0 1.98 0 3 C-1.33333333 4.33333333 -2.66666667 5.66666667 -4 7 C-4.53625 8.134375 -5.0725 9.26875 -5.625 10.4375 C-8.25458268 15.30903764 -12.99321781 17.13306427 -18 19 C-29.54556863 22.0302323 -41.69074437 19.81358908 -53 17 C-54.9559415 16.59251219 -56.91408122 16.19531982 -58.875 15.8125 C-59.67679688 15.65394531 -60.47859375 15.49539062 -61.3046875 15.33203125 C-61.86414062 15.22246094 -62.42359375 15.11289063 -63 15 C-63.33 15.99 -63.66 16.98 -64 18 C-64.66 17.34 -65.32 16.68 -66 16 C-65.625 13.875 -65.625 13.875 -65 12 C-65.99 11.67 -66.98 11.34 -68 11 C-64.19549037 8.46366025 -62.53954193 8.63792288 -58 9 C-54.7136856 9.83389425 -51.52466655 10.91931099 -48.3125 12 C-35.93837961 15.89730757 -26.08348126 16.56250908 -14 11 C-11.10867652 9.223345 -8.55831564 7.22289204 -6 5 C-4.83359645 4.04134644 -3.66695185 3.08298605 -2.5 2.125 C-1.2625 1.073125 -1.2625 1.073125 0 0 Z " fill="#BA231F" transform="translate(69,105)"/>
<path d="M0 0 C6.15234375 0.5859375 6.15234375 0.5859375 8 1 C8.33 1.66 8.66 2.32 9 3 C7.68 3 6.36 3 5 3 C4.96261719 3.61488281 4.92523438 4.22976562 4.88671875 4.86328125 C4.82097656 5.67152344 4.75523437 6.47976562 4.6875 7.3125 C4.62949219 8.11300781 4.57148438 8.91351563 4.51171875 9.73828125 C3.90424461 12.42322421 2.96593365 13.14796175 1 15 C0.13402922 17.02460761 -0.49914726 19.05977427 -1.15625 21.16015625 C-2 23 -2 23 -5 25 C-6.11429085 26.7077491 -6.11429085 26.7077491 -7 28.6875 C-7.34160156 29.3990625 -7.68320313 30.110625 -8.03515625 30.84375 C-8.89536609 32.76616228 -9.67254955 34.72523581 -10.4375 36.6875 C-12.3916794 40.83036033 -14.84965583 43.92482791 -19 46 C-17 42 -17 42 -15 38 C-15.66 37.67 -16.32 37.34 -17 37 C-15.99555489 34.97753621 -14.98081544 32.96352132 -13.9296875 30.96484375 C-13.58164063 30.29582031 -13.23359375 29.62679687 -12.875 28.9375 C-12.52179688 28.26589844 -12.16859375 27.59429687 -11.8046875 26.90234375 C-10.80521085 24.88375911 -10.80521085 24.88375911 -11 22 C-9.94140625 20.0625 -9.94140625 20.0625 -8.5625 18 C-6.95687846 15.58470606 -5.92762586 13.78287757 -5 11 C-3.35511706 9.31183067 -1.68662458 7.64646685 0 6 C1.02813611 4.68824014 2.04084432 3.3630107 3 2 C2.01 2 1.02 2 0 2 C0 1.34 0 0.68 0 0 Z " fill="#B31F1F" transform="translate(149,62)"/>
<path d="M0 0 C0.12117188 0.90363281 0.24234375 1.80726562 0.3671875 2.73828125 C0.61855469 4.50751953 0.61855469 4.50751953 0.875 6.3125 C1.11863281 8.07013672 1.11863281 8.07013672 1.3671875 9.86328125 C1.82300621 13.14530895 1.82300621 13.14530895 4 16 C3.625 18.1875 3.625 18.1875 3 20 C0.84694043 16.14243493 -0.39253254 13.44870215 0 9 C-0.66 9 -1.32 9 -2 9 C-2 8.34 -2 7.68 -2 7 C-3.98 6.67 -5.96 6.34 -8 6 C-8 6.66 -8 7.32 -8 8 C-11.63 8.33 -15.26 8.66 -19 9 C-19 9.66 -19 10.32 -19 11 C-18.401875 11.0825 -17.80375 11.165 -17.1875 11.25 C-14.37067727 12.21576779 -13.52200868 13.48868567 -12 16 C-12 16.66 -12 17.32 -12 18 C-11.34 18 -10.68 18 -10 18 C-10 18.66 -10 19.32 -10 20 C-7.03 20.33 -4.06 20.66 -1 21 C-1.33 21.66 -1.66 22.32 -2 23 C-3.258125 22.87625 -4.51625 22.7525 -5.8125 22.625 C-6.52019531 22.55539063 -7.22789062 22.48578125 -7.95703125 22.4140625 C-10 22 -10 22 -13 20 C-14.0409066 18.35857037 -15.04504326 16.69287785 -16 15 C-16.98407311 13.79504091 -16.98407311 13.79504091 -18.85766602 13.88647461 C-19.64842529 13.89171143 -20.43918457 13.89694824 -21.25390625 13.90234375 C-22.53491211 13.90717773 -22.53491211 13.90717773 -23.84179688 13.91210938 C-25.18854492 13.92467773 -25.18854492 13.92467773 -26.5625 13.9375 C-27.46419922 13.94201172 -28.36589844 13.94652344 -29.29492188 13.95117188 C-31.53001314 13.96299775 -33.76497437 13.9794778 -36 14 C-36 11 -36 11 -34 8 C-31.6809082 7.35571289 -31.6809082 7.35571289 -28.80078125 6.97265625 C-27.75599609 6.81990234 -26.71121094 6.66714844 -25.63476562 6.50976562 C-23.4396216 6.21424065 -21.24431142 5.91994701 -19.04882812 5.62695312 C-12.67361154 4.69275523 -5.80364952 0 0 0 Z " fill="#92AA58" transform="translate(148,29)"/>
<path d="M0 0 C-1.26467795 3.79403384 -2.61697513 4.06684293 -6 6 C-8.75309078 8.11776214 -9.70136267 10.50192388 -10.97265625 13.68359375 C-13.30645064 18.94572331 -16.23198099 23.95689687 -19 29 C-19.66 29 -20.32 29 -21 29 C-21.17813232 29.54382324 -21.35626465 30.08764648 -21.53979492 30.64794922 C-23.36542738 36.17869831 -25.26846377 41.67111843 -27.3125 47.125 C-27.58255859 47.88425781 -27.85261719 48.64351562 -28.13085938 49.42578125 C-30.20847918 54.92508469 -33.0021756 58.73493944 -37 63 C-38.0161846 64.32103998 -39.02615879 65.64744276 -40 67 C-40.66 66.67 -41.32 66.34 -42 66 C-41.32517578 65.01 -41.32517578 65.01 -40.63671875 64 C-35.88132006 56.68106975 -32.08905734 49.1434925 -28.5 41.1875 C-28.02852539 40.1456958 -27.55705078 39.1038916 -27.07128906 38.03051758 C-25.3402291 34.19792687 -23.61222611 30.36397406 -21.89013672 26.52734375 C-9.8547962 0 -9.8547962 0 0 0 Z " fill="#C82422" transform="translate(109,39)"/>
<path d="M0 0 C1.3983022 0.42954381 2.79353907 0.86907034 4.1875 1.3125 C4.96480469 1.55613281 5.74210937 1.79976562 6.54296875 2.05078125 C9 3 9 3 11.24853516 4.48193359 C16.42601295 7.33850475 22.39561769 7.53199274 28.1875 8.3125 C30.10272461 8.60350586 30.10272461 8.60350586 32.05664062 8.90039062 C39.38231046 9.91355524 45.89936261 10.39242453 53 8 C53.33 7.67 53.66 7.34 54 7 C56.67058851 6.85884839 59.32432238 6.95752893 62 7 C59.51676421 10.72485369 58.28595637 10.94986821 54 12 C51.20329741 12.19663086 48.5094954 12.3042195 45.71484375 12.30078125 C44.93613419 12.30506638 44.15742462 12.3093515 43.3551178 12.31376648 C41.71714242 12.31948322 40.07914167 12.32002973 38.44116211 12.31567383 C35.94145449 12.31250501 33.44292175 12.33603537 30.94335938 12.36132812 C29.34635565 12.36360059 27.74934876 12.36430486 26.15234375 12.36328125 C25.40951645 12.372491 24.66668915 12.38170074 23.90135193 12.39118958 C19.37963945 12.35101173 16.65960137 11.64574517 13 9 C10.44791016 7.76274064 7.88082734 6.56518341 5.3046875 5.37890625 C2.80873365 3.88556437 1.57218157 2.41992653 0 0 Z " fill="#D53432" transform="translate(18,131)"/>
<path d="M0 0 C-1.38911741 2.77823482 -3.00586813 3.14861755 -5.8125 4.4375 C-6.68519531 4.84871094 -7.55789062 5.25992188 -8.45703125 5.68359375 C-18.49823613 9.41444937 -27.75999827 10.45441257 -38.4375 10.3125 C-40.29665039 10.31733398 -40.29665039 10.31733398 -42.19335938 10.32226562 C-52.12606957 10.26323817 -52.12606957 10.26323817 -57 8 C-57 7.67 -57 7.34 -57 7 C-56.17798096 6.97494385 -55.35596191 6.9498877 -54.5090332 6.92407227 C-50.77670626 6.80787345 -47.04461683 6.68525495 -43.3125 6.5625 C-42.01892578 6.52318359 -40.72535156 6.48386719 -39.39257812 6.44335938 C-38.14541016 6.40146484 -36.89824219 6.35957031 -35.61328125 6.31640625 C-33.89298706 6.26141968 -33.89298706 6.26141968 -32.13793945 6.20532227 C-29.03726161 6.07780095 -29.03726161 6.07780095 -26.20385742 5.40600586 C-24 5 -24 5 -22.125 6.1875 C-21.073125 6.5896875 -21.073125 6.5896875 -20 7 C-16.78288376 5.43142389 -16.78288376 5.43142389 -14.734375 4.0859375 C-12.59075128 2.74375869 -10.3607703 1.89326444 -8 1 C-7.319375 0.608125 -6.63875 0.21625 -5.9375 -0.1875 C-3.5476033 -1.18971474 -2.39624834 -0.85580298 0 0 Z " fill="#BB1F20" transform="translate(101,136)"/>
<path d="M0 0 C2.5048111 1.87860833 2.98700625 2.96101874 4 6 C4.16796875 7.9375 4.16796875 7.9375 4.1875 10 C4.20167969 10.680625 4.21585938 11.36125 4.23046875 12.0625 C4 14 4 14 2 17 C-1.72301503 17.47730962 -2.79191085 17.1387261 -6 15 C-6.51171875 12.6171875 -6.51171875 12.6171875 -6.6875 9.875 C-6.75324219 8.96492188 -6.81898438 8.05484375 -6.88671875 7.1171875 C-6.92410156 6.41851562 -6.96148437 5.71984375 -7 5 C-7.99 5.33 -8.98 5.66 -10 6 C-9.75 4.125 -9.75 4.125 -9 2 C-6.08386411 -0.0829542 -3.5272448 -0.45221087 0 0 Z " fill="#F07776" transform="translate(144,52)"/>
<path d="M0 0 C2.4446821 0.75220988 4.57385913 1.77923912 6.83984375 2.953125 C15.4617244 7.38818069 23.37287799 8.44987874 33 9 C32.67 9.66 32.34 10.32 32 11 C22.52546168 11.42493777 14.19064818 10.21396343 5 8 C3.04375198 7.59398626 1.08561359 7.19687981 -0.875 6.8125 C-1.67679688 6.65394531 -2.47859375 6.49539062 -3.3046875 6.33203125 C-4.14386719 6.16767578 -4.14386719 6.16767578 -5 6 C-5.33 6.99 -5.66 7.98 -6 9 C-6.66 8.34 -7.32 7.68 -8 7 C-7.625 4.875 -7.625 4.875 -7 3 C-7.99 2.67 -8.98 2.34 -10 2 C-6.28424249 -0.47717167 -4.40013262 -0.30345742 0 0 Z " fill="#AA2420" transform="translate(11,114)"/>
<path d="M0 0 C2.41936317 -0.16249454 4.82781859 -0.28097817 7.25 -0.375 C8.27287109 -0.45041016 8.27287109 -0.45041016 9.31640625 -0.52734375 C11.328125 -0.5859375 11.328125 -0.5859375 15 0 C17.375 2.85546875 17.375 2.85546875 19 6 C19.5775 6.886875 20.155 7.77375 20.75 8.6875 C22.54797943 13.4521455 22.24192125 17.96445397 22 23 C21.34 23 20.68 23 20 23 C19.81824219 22.10796875 19.63648438 21.2159375 19.44921875 20.296875 C19.19785156 19.12640625 18.94648438 17.9559375 18.6875 16.75 C18.32205078 15.00976562 18.32205078 15.00976562 17.94921875 13.234375 C17.03232721 10.11015198 16.29247047 8.28687908 14 6 C9.52655575 5.57797696 5.39491296 6.14245601 1 7 C-0.0625 4.625 -0.0625 4.625 -1 2 C-0.67 1.34 -0.34 0.68 0 0 Z " fill="#435E1A" transform="translate(125,2)"/>
<path d="M0 0 C4.470198 1.36589383 6.48716779 3.06322953 9 7 C13.51273926 16.75831653 12.10630398 26.6086448 11 37 C9.32889958 34.03821227 8.67317248 31.62928808 8.375 28.25 C8.30023438 27.45078125 8.22546875 26.6515625 8.1484375 25.828125 C8.09945312 25.22484375 8.05046875 24.6215625 8 24 C6.35 24.99 4.7 25.98 3 27 C3.33 24.69 3.66 22.38 4 20 C4.33 20.99 4.66 21.98 5 23 C5.66 23 6.32 23 7 23 C6.67518691 16.70534637 6.39378019 11.4822603 3 6 C0 1 0 1 0 0 Z " fill="#577D24" transform="translate(140,2)"/>
<path d="M0 0 C0.495 1.485 0.495 1.485 1 3 C0.05988318 4.70116376 -0.94895617 6.36504293 -2 8 C-2.29003906 8.79905762 -2.58007812 9.59811523 -2.87890625 10.42138672 C-4.10625204 13.24438894 -5.42137712 14.75436301 -7.625 16.8828125 C-8.68460938 17.92115234 -8.68460938 17.92115234 -9.765625 18.98046875 C-10.87164062 20.04201172 -10.87164062 20.04201172 -12 21.125 C-13.46047381 22.54206812 -14.91889773 23.9612528 -16.375 25.3828125 C-17.02210937 26.00559082 -17.66921875 26.62836914 -18.3359375 27.27001953 C-20.19466974 29.10021318 -20.19466974 29.10021318 -22 32 C-23.65532623 33.01866229 -25.32260138 34.01810813 -27 35 C-28.75149165 36.58245275 -28.75149165 36.58245275 -30 38 C-30.99 37.67 -31.98 37.34 -33 37 C-30.58404621 33.65483322 -28.35216353 31.52414637 -24.8515625 29.37890625 C-21.24783732 26.69511935 -18.26551762 23.29051241 -15.171875 20.046875 C-13 18 -13 18 -11 18 C-10.84144531 17.39671875 -10.68289062 16.7934375 -10.51953125 16.171875 C-8.95925793 10.82729237 -7.6738406 8.27168842 -3 5 C-1.21037181 2.38142305 -1.21037181 2.38142305 0 0 Z " fill="#971C1B" transform="translate(138,99)"/>
<path d="M0 0 C3.24969769 -0.11638036 6.4988583 -0.18730581 9.75 -0.25 C10.67039062 -0.28351562 11.59078125 -0.31703125 12.5390625 -0.3515625 C19.34961554 -0.45026617 19.34961554 -0.45026617 22.640625 1.828125 C24 4 24 4 24 7 C24.89203125 7.10054687 25.7840625 7.20109375 26.703125 7.3046875 C36.14941984 8.82358513 36.14941984 8.82358513 38.75390625 12.42578125 C39.71930178 14.94435926 40.46947573 17.35729501 41 20 C40.01 20 39.02 20 38 20 C37.72285156 19.43410156 37.44570312 18.86820313 37.16015625 18.28515625 C36.79792969 17.55167969 36.43570313 16.81820312 36.0625 16.0625 C35.52302734 14.96615234 35.52302734 14.96615234 34.97265625 13.84765625 C34.13628173 12.03750973 34.13628173 12.03750973 33 11 C31.58251465 11.13764837 30.16597727 11.28511834 28.75 11.4375 C26.25390625 11.49609375 26.25390625 11.49609375 24 11 C22.71484375 9.22265625 22.71484375 9.22265625 21.6875 7 C20.66932461 4.74059972 20.66932461 4.74059972 19 3 C13.27985413 1.83997042 7.64218331 2.7657724 2 4 C1.34 2.68 0.68 1.36 0 0 Z " fill="#6C4C20" transform="translate(111,42)"/>
<path d="M0 0 C-3.16174921 2.10783281 -5.45168074 2.717194 -9.125 3.5625 C-12.87019799 4.16664395 -12.87019799 4.16664395 -16 6 C-12.7 6.33 -9.4 6.66 -6 7 C-6 7.33 -6 7.66 -6 8 C-15.405 8.495 -15.405 8.495 -25 9 C-25 6 -25 6 -23 3 C-20.21360816 2.28576665 -17.57983822 1.7476768 -14.75 1.3125 C-13.99847656 1.18294922 -13.24695313 1.05339844 -12.47265625 0.91992188 C-8.27198264 0.22714063 -4.27204514 -0.14285501 0 0 Z " fill="#74A346" transform="translate(137,34)"/>
<path d="M0 0 C0.33 0 0.66 0 1 0 C1.612002 3.40972542 1.34004216 5.45111305 -0.48828125 8.40234375 C-2.24809156 10.70867901 -3.96652334 12.92971834 -6 15 C-6.66 15 -7.32 15 -8 15 C-8.4021875 16.2065625 -8.4021875 16.2065625 -8.8125 17.4375 C-9.204375 18.283125 -9.59625 19.12875 -10 20 C-10.99 20.33 -11.98 20.66 -13 21 C-13 17.61150886 -12.39792933 16.74534471 -10.5625 14 C-8.95687846 11.58470606 -7.92762586 9.78287757 -7 7 C-5.37550757 5.29220027 -3.70779973 3.62449243 -2 2 C-1.34 1.34 -0.68 0.68 0 0 Z " fill="#C12C2A" transform="translate(151,66)"/>
<path d="M0 0 C0.99 0.33 1.98 0.66 3 1 C-0.60977046 6.03180124 -2.73299805 7.76714716 -9 9 C-9.77730469 9.19464844 -10.55460937 9.38929688 -11.35546875 9.58984375 C-17.26707139 10.99213089 -22.00630624 10.9667248 -28 10 C-28 9.67 -28 9.34 -28 9 C-26.865625 8.690625 -25.73125 8.38125 -24.5625 8.0625 C-21.21224901 7.37075469 -21.21224901 7.37075469 -20 6 C-18.45778169 6.00590888 -16.91564846 6.05518209 -15.375 6.125 C-9.63259188 6.18250623 -5.50487558 5.18166583 -1.0625 1.3125 C-0.5365625 0.6628125 -0.5365625 0.6628125 0 0 Z " fill="#E04241" transform="translate(80,131)"/>
<path d="M0 0 C6.875 1.875 6.875 1.875 8 3 C8.23529412 10.29411765 8.23529412 10.29411765 7 14 C6.01 14 5.02 14 4 14 C2.35 9.71 0.7 5.42 -1 1 C-0.67 0.67 -0.34 0.34 0 0 Z " fill="#FA9E9C" transform="translate(138,53)"/>
<path d="M0 0 C5.6531924 1.6095895 10.40126319 3.605796 15.2734375 6.9140625 C19.60620478 9.63919667 24.42616437 9.34176226 29.3828125 9.62109375 C30.24648438 9.74613281 31.11015625 9.87117187 32 10 C32.495 10.99 32.495 10.99 33 12 C30.60347472 12.08139142 28.20974564 12.14067009 25.8125 12.1875 C25.13896484 12.21263672 24.46542969 12.23777344 23.77148438 12.26367188 C19.21270243 12.33038576 16.6970647 11.60095004 13 9 C10.44791016 7.76274064 7.88082734 6.56518341 5.3046875 5.37890625 C2.80873365 3.88556437 1.57218157 2.41992653 0 0 Z " fill="#C72726" transform="translate(18,131)"/>
<path d="M0 0 C0.99 0.33 1.98 0.66 3 1 C-3.9775739 7.13180737 -12.54312328 10.0713467 -21.828125 9.96875 C-26.68335308 9.58033175 -26.68335308 9.58033175 -29 9 C-29.33 8.34 -29.66 7.68 -30 7 C-28.87722656 6.96261719 -27.75445312 6.92523438 -26.59765625 6.88671875 C-12.40930787 6.35674612 -12.40930787 6.35674612 0 0 Z " fill="#F05D62" transform="translate(60,122)"/>
<path d="M0 0 C4.470198 1.36589383 6.48716779 3.06322953 9 7 C12 14.41025641 12 14.41025641 12 18 C10.68 18.33 9.36 18.66 8 19 C7.731875 17.96875 7.46375 16.9375 7.1875 15.875 C5.86957505 11.27154384 3.77230749 7.28717916 1.3125 3.1875 C0 1 0 1 0 0 Z " fill="#6B8B34" transform="translate(140,2)"/>
<path d="M0 0 C6.15234375 0.5859375 6.15234375 0.5859375 8 1 C8.33 1.66 8.66 2.32 9 3 C7.68 3 6.36 3 5 3 C4.96261719 3.61488281 4.92523438 4.22976562 4.88671875 4.86328125 C4.82097656 5.67152344 4.75523437 6.47976562 4.6875 7.3125 C4.62949219 8.11300781 4.57148438 8.91351563 4.51171875 9.73828125 C3.90424461 12.42322421 2.96593365 13.14796175 1 15 C0.13402922 17.02460761 -0.49914726 19.05977427 -1.15625 21.16015625 C-2 23 -2 23 -5 25 C-6.20450304 27.55183404 -6.20450304 27.55183404 -7 30 C-8.36898552 25.89304344 -7.07903399 24.19875177 -5.3203125 20.3984375 C-4.00575218 18.01044922 -2.53576851 16.04371707 -0.8125 13.9375 C2.34867084 9.98006447 2.82093262 7.01388659 3 2 C2.01 2 1.02 2 0 2 C0 1.34 0 0.68 0 0 Z " fill="#A22220" transform="translate(149,62)"/>
<path d="M0 0 C0 3 0 3 -2.375 5.9375 C-6.80669918 10.15866715 -12.66745022 12.87949055 -18.80859375 13.1015625 C-19.53175781 13.06804687 -20.25492188 13.03453125 -21 13 C-21 13.66 -21 14.32 -21 15 C-32.52164009 15.18451025 -32.52164009 15.18451025 -38 14 C-38 13.67 -38 13.34 -38 13 C-36.94941406 12.96261719 -35.89882813 12.92523438 -34.81640625 12.88671875 C-22.3156425 12.34443797 -11.09057979 10.39881591 -1.4375 1.6875 C-0.963125 1.130625 -0.48875 0.57375 0 0 Z " fill="#C53739" transform="translate(68,112)"/>
<path d="M0 0 C0.99 0.33 1.98 0.66 3 1 C-1.49244574 10.25716092 -6.67928972 16.93512673 -15 23 C-15.66 22.67 -16.32 22.34 -17 22 C-16.030625 21.113125 -15.06125 20.22625 -14.0625 19.3125 C-8.57316035 13.85683728 -3.46793903 6.93587807 0 0 Z " fill="#E15A5C" transform="translate(78,99)"/>
<path d="M0 0 C0.66 0.66 1.32 1.32 2 2 C1.16855469 2.79664063 0.33710937 3.59328125 -0.51953125 4.4140625 C-1.61758808 5.48396403 -2.71522203 6.5542997 -3.8125 7.625 C-4.35970703 8.14707031 -4.90691406 8.66914062 -5.47070312 9.20703125 C-8.86914008 12.54367844 -11.07990963 15.56902222 -13 20 C-14 22 -15 24 -16 26 C-17 24 -17 24 -16.25 21.4609375 C-12.54587782 12.31638587 -8.02693278 5.8377693 0 0 Z " fill="#E25B5E" transform="translate(110,46)"/>
<path d="M0 0 C1.216875 -0.04125 2.43375 -0.0825 3.6875 -0.125 C4.71423828 -0.15980469 4.71423828 -0.15980469 5.76171875 -0.1953125 C8.46344605 0.04044032 10.49481366 0.97377909 13 2 C14.92792077 2.42148875 16.8665317 2.79676438 18.8125 3.125 C19.78832031 3.29257813 20.76414062 3.46015625 21.76953125 3.6328125 C22.50558594 3.75398438 23.24164062 3.87515625 24 4 C24 4.33 24 4.66 24 5 C16.77875787 4.58169634 9.95432222 4.04538889 3 2 C5.64960955 5.63094642 8.01824456 7.89851796 12 10 C10.265625 10.734375 10.265625 10.734375 8 11 C5.859375 9.453125 5.859375 9.453125 3.75 7.25 C3.04359375 6.53328125 2.3371875 5.8165625 1.609375 5.078125 C0 3 0 3 0 0 Z " fill="#C63C3D" transform="translate(6,120)"/>
<path d="M0 0 C2.9375 1 2.9375 1 5 2 C5 2.99 5 3.98 5 5 C1.04 5 -2.92 5 -7 5 C-7.33 5.66 -7.66 6.32 -8 7 C-7.67 5.68 -7.34 4.36 -7 3 C-7.99 2.67 -8.98 2.34 -10 2 C-6.28424249 -0.47717167 -4.40013262 -0.30345742 0 0 Z " fill="#9F1E17" transform="translate(11,114)"/>
<path d="M0 0 C0.66 0.33 1.32 0.66 2 1 C-6.18441091 8.6563844 -16.36992751 8.5938444 -27 9 C-23.64189189 5.08220721 -23.64189189 5.08220721 -20.7734375 4.71484375 C-19.98195313 4.78832031 -19.19046875 4.86179687 -18.375 4.9375 C-11.65841002 5.22606461 -5.61104894 3.74069929 0 0 Z " fill="#43A322" transform="translate(140,28)"/>
<path d="M0 0 C0.99 0 1.98 0 3 0 C3 0.66 3 1.32 3 2 C6.63 2 10.26 2 14 2 C14 2.99 14 3.98 14 5 C4.58997722 7.48063781 4.58997722 7.48063781 0 6 C-1.125 2.25 -1.125 2.25 0 0 Z " fill="#3D5D0D" transform="translate(125,2)"/>
<path d="M0 0 C-0.309375 0.598125 -0.61875 1.19625 -0.9375 1.8125 C-2.10209704 4.08956772 -2.10209704 4.08956772 -3 7 C-3.928125 7.45375 -4.85625 7.9075 -5.8125 8.375 C-9.27253508 10.13893945 -10.69154852 11.94954626 -13 15 C-13.66 15 -14.32 15 -15 15 C-14.58565093 10.16592748 -12.62206046 8.10462326 -9 5 C-8.01 4.67 -7.02 4.34 -6 4 C-5.67 3.01 -5.34 2.02 -5 1 C-2 0 -2 0 0 0 Z " fill="#AB2A24" transform="translate(114,37)"/>
<path d="M0 0 C-2.04782969 4.09565938 -7.90683535 5.43649421 -12 7 C-15.31229212 7.86312374 -18.61369734 8.50784755 -22 9 C-18.12106379 5.12106379 -13.0744796 2.92007336 -8 1 C-7.319375 0.608125 -6.63875 0.21625 -5.9375 -0.1875 C-3.5476033 -1.18971474 -2.39624834 -0.85580298 0 0 Z " fill="#B41D1F" transform="translate(101,136)"/>
<path d="M0 0 C0.66 0.33 1.32 0.66 2 1 C-5.17598922 7.66341856 -11.72811124 7.21531719 -21.33984375 7.16796875 C-25.54200484 6.97512678 -29.0172743 6.30048186 -33 5 C-30.10089716 4.13311141 -27.88547169 3.9541438 -24.890625 4.33984375 C-23.75947266 4.4800293 -23.75947266 4.4800293 -22.60546875 4.62304688 C-21.43951172 4.77870117 -21.43951172 4.77870117 -20.25 4.9375 C-19.45722656 5.03740234 -18.66445313 5.13730469 -17.84765625 5.24023438 C-15.89759629 5.48692871 -13.94867414 5.7425878 -12 6 C-12 5.34 -12 4.68 -12 4 C-10.82630859 3.69255859 -10.82630859 3.69255859 -9.62890625 3.37890625 C-8.61699219 3.10949219 -7.60507812 2.84007813 -6.5625 2.5625 C-5.55316406 2.29566406 -4.54382813 2.02882813 -3.50390625 1.75390625 C-1.08247999 1.24021923 -1.08247999 1.24021923 0 0 Z " fill="#DB464B" transform="translate(59,121)"/>
<path d="M0 0 C0.12117187 0.90363281 0.24234375 1.80726562 0.3671875 2.73828125 C0.53476563 3.91777344 0.70234375 5.09726562 0.875 6.3125 C1.11863281 8.07013672 1.11863281 8.07013672 1.3671875 9.86328125 C1.82300621 13.14530895 1.82300621 13.14530895 4 16 C3.625 18.1875 3.625 18.1875 3 20 C0.84694043 16.14243493 -0.39253254 13.44870215 0 9 C-0.66 9 -1.32 9 -2 9 C-2 7.35 -2 5.7 -2 4 C-4.64 4.33 -7.28 4.66 -10 5 C-6.99385784 1.69324363 -4.54252119 0 0 0 Z " fill="#84AB47" transform="translate(148,29)"/>
<path d="M0 0 C2.41895337 1.11644002 4.4940002 2.3446513 6.6875 3.875 C10.62368295 6.4000985 14.69512437 8.20151862 19 10 C19 10.33 19 10.66 19 11 C14.26836035 11.30097708 11.39727503 10.58662733 7.25 8.3125 C6.30640625 7.81363281 5.3628125 7.31476563 4.390625 6.80078125 C1.65916119 4.74325704 0.94869943 3.23771259 0 0 Z " fill="#B01F1F" transform="translate(16,131)"/>
<path d="M0 0 C4.55842912 0.51381137 8.75868461 1.21225148 13 3 C15.27061618 6.14042905 16.24168275 9.22258793 17 13 C16.01 13 15.02 13 14 13 C13.72285156 12.43410156 13.44570312 11.86820313 13.16015625 11.28515625 C12.79792969 10.55167969 12.43570313 9.81820312 12.0625 9.0625 C11.70285156 8.33160156 11.34320313 7.60070313 10.97265625 6.84765625 C10.13628173 5.03750973 10.13628173 5.03750973 9 4 C7.65252916 3.76924918 6.29622435 3.58846937 4.9375 3.4375 C3.638125 3.293125 2.33875 3.14875 1 3 C0.67 2.01 0.34 1.02 0 0 Z " fill="#654314" transform="translate(135,49)"/>
<path d="M0 0 C3 1 3 1 4.16796875 2.9609375 C4.50441406 3.75757813 4.84085938 4.55421875 5.1875 5.375 C5.70376953 6.56222656 5.70376953 6.56222656 6.23046875 7.7734375 C7 10 7 10 7 13 C7.99 13.33 8.98 13.66 10 14 C7.69 13.67 5.38 13.34 3 13 C2.67 9.7 2.34 6.4 2 3 C1.01 3.33 0.02 3.66 -1 4 C-0.67 2.68 -0.34 1.36 0 0 Z " fill="#FC8887" transform="translate(135,54)"/>
<path d="M0 0 C1.32 0.33 2.64 0.66 4 1 C3.67 1.66 3.34 2.32 3 3 C9.93 3.495 9.93 3.495 17 4 C17 4.33 17 4.66 17 5 C7.595 5.495 7.595 5.495 -2 6 C-2 3 -2 3 0 0 Z " fill="#738F42" transform="translate(114,37)"/>
<path d="M0 0 C0 3.96 0 7.92 0 12 C-0.33 12 -0.66 12 -1 12 C-1 9.36 -1 6.72 -1 4 C-1.66386719 4.3609375 -2.32773438 4.721875 -3.01171875 5.09375 C-4.33623047 5.78984375 -4.33623047 5.78984375 -5.6875 6.5 C-6.99267578 7.19609375 -6.99267578 7.19609375 -8.32421875 7.90625 C-11.11788829 9.04818792 -13.01629113 9.21504208 -16 9 C-15.4225 8.731875 -14.845 8.46375 -14.25 8.1875 C-10.5596129 6.2397957 -8.33222519 4.49833779 -6 1 C-5.67 1.66 -5.34 2.32 -5 3 C-4.360625 2.505 -3.72125 2.01 -3.0625 1.5 C-1 0 -1 0 0 0 Z " fill="#698F39" transform="translate(149,25)"/>
<path d="M0 0 C-0.99 1.485 -0.99 1.485 -2 3 C-3.99609375 3.328125 -3.99609375 3.328125 -6.4375 3.25 C-7.32050781 3.22421875 -8.20351563 3.1984375 -9.11328125 3.171875 C-13.75447467 2.89553872 -18.3769537 2.49218744 -23 2 C-23 1.67 -23 1.34 -23 1 C-20.10425766 0.83160792 -17.20842326 0.66522615 -14.3125 0.5 C-13.08756836 0.42845703 -13.08756836 0.42845703 -11.83789062 0.35546875 C-7.88646942 0.13150156 -3.95981243 -0.06451833 0 0 Z " fill="#E54A49" transform="translate(60,137)"/>
<path d="M0 0 C1.9375 0.6875 1.9375 0.6875 2.9375 2.6875 C-5.9725 2.6875 -14.8825 2.6875 -24.0625 2.6875 C-24.0625 2.3575 -24.0625 2.0275 -24.0625 1.6875 C-23.46711426 1.66244385 -22.87172852 1.6373877 -22.25830078 1.61157227 C-19.56780864 1.49572506 -16.8776766 1.37294804 -14.1875 1.25 C-13.25035156 1.21068359 -12.31320313 1.17136719 -11.34765625 1.13085938 C-10.45175781 1.08896484 -9.55585937 1.04707031 -8.6328125 1.00390625 C-7.39168701 0.94891968 -7.39168701 0.94891968 -6.12548828 0.89282227 C-3.66848282 0.6482848 -2.47775849 -0.37541795 0 0 Z " fill="#C72424" transform="translate(76.0625,141.3125)"/>
<path d="M0 0 C4.4062186 1.34634457 6.43077702 3.19374374 9 7 C9 7.66 9 8.32 9 9 C7.68 9 6.36 9 5 9 C2.29254639 6.21519058 0.57441403 3.87729472 0 0 Z " fill="#7E9F49" transform="translate(140,2)"/>
<path d="M0 0 C-0.7425 0.37125 -1.485 0.7425 -2.25 1.125 C-5.47948206 3.32691959 -6.86493613 5.76296768 -9 9 C-11.25 10.375 -11.25 10.375 -13 11 C-11.50948318 6.39294801 -9.21457741 3.53603516 -6 0 C-3.50907189 -1.24546405 -2.58919267 -0.7767578 0 0 Z " fill="#C03A3A" transform="translate(112,45)"/>
<path d="M0 0 C0.33 0.66 0.66 1.32 1 2 C1.99 2.33 2.98 2.66 4 3 C4 4.32 4 5.64 4 7 C1.69 7 -0.62 7 -3 7 C-3.66 5.02 -4.32 3.04 -5 1 C-4.01 1.495 -4.01 1.495 -3 2 C-3 2.99 -3 3.98 -3 5 C-2.01 5 -1.02 5 0 5 C0 3.35 0 1.7 0 0 Z " fill="#727D39" transform="translate(155,56)"/>
<path d="M0 0 C5.452999 1.56818272 9.76486783 3.03810217 14 7 C8.7046288 7.50432107 6.13295494 6.28757779 2 3 C1.34 2.01 0.68 1.02 0 0 Z " fill="#D23130" transform="translate(18,131)"/>
<path d="M0 0 C0 3.48069506 -0.2978567 4.95032658 -2 8 C-4.53708741 10.19535727 -7.22301932 12.12069447 -10 14 C-9.690625 13.401875 -9.38125 12.80375 -9.0625 12.1875 C-7.89790296 9.91043228 -7.89790296 9.91043228 -7 7 C-5.37550757 5.29220027 -3.70779973 3.62449243 -2 2 C-1.34 1.34 -0.68 0.68 0 0 Z " fill="#CD3937" transform="translate(151,66)"/>
<path d="M0 0 C1.32 0 2.64 0 4 0 C3.71382812 0.55171875 3.42765625 1.1034375 3.1328125 1.671875 C1.92260849 4.15905289 0.8904694 6.67747753 -0.125 9.25 C-0.47820312 10.14203125 -0.83140625 11.0340625 -1.1953125 11.953125 C-1.46085938 12.62859375 -1.72640625 13.3040625 -2 14 C-2.99 14 -3.98 14 -5 14 C-4.67 13.01 -4.34 12.02 -4 11 C-3.34 11 -2.68 11 -2 11 C-1.34 7.37 -0.68 3.74 0 0 Z " fill="#88231C" transform="translate(154,65)"/>
<path d="M0 0 C3.00617269 3.00617269 2.59585316 5.82381598 3 10 C2.01 10 1.02 10 0 10 C-0.33 9.01 -0.66 8.02 -1 7 C-1.66 6.67 -2.32 6.34 -3 6 C-3 5.34 -3 4.68 -3 4 C-2.01 4 -1.02 4 0 4 C0 2.68 0 1.36 0 0 Z " fill="#99B060" transform="translate(152,51)"/>
<path d="M0 0 C-0.309375 0.598125 -0.61875 1.19625 -0.9375 1.8125 C-2.10209704 4.08956772 -2.10209704 4.08956772 -3 7 C-6.0625 8.1875 -6.0625 8.1875 -9 9 C-8.33333333 7.66666667 -7.66666667 6.33333333 -7 5 C-6.5359375 3.9171875 -6.5359375 3.9171875 -6.0625 2.8125 C-4.55727378 0.24476116 -2.8823948 0 0 0 Z " fill="#A9332A" transform="translate(114,37)"/>
<path d="M0 0 C0 3 0 3 -1.96875 5.04296875 C-2.8040625 5.75066406 -3.639375 6.45835938 -4.5 7.1875 C-5.3353125 7.90292969 -6.170625 8.61835937 -7.03125 9.35546875 C-7.6809375 9.89816406 -8.330625 10.44085938 -9 11 C-9.33 10.01 -9.66 9.02 -10 8 C-8.89764064 7.03958829 -7.79303376 6.08175593 -6.6875 5.125 C-5.76517578 4.32449219 -5.76517578 4.32449219 -4.82421875 3.5078125 C-3 2 -3 2 0 0 Z " fill="#B92C29" transform="translate(72,107)"/>
<path d="M0 0 C0.99 0.33 1.98 0.66 3 1 C-0.96 4.465 -0.96 4.465 -5 8 C-5.33 7.34 -5.66 6.68 -6 6 C-6.99 6.33 -7.98 6.66 -9 7 C-9.33 6.01 -9.66 5.02 -10 4 C-7.98177083 3.54427083 -5.96354167 3.08854167 -3.9453125 2.6328125 C-1.79280036 2.09525572 -1.79280036 2.09525572 0 0 Z " fill="#E04342" transform="translate(102,107)"/>
<path d="M0 0 C2.475 0.99 2.475 0.99 5 2 C5 3.98 5 5.96 5 8 C2 7 2 7 0 4 C0 2.68 0 1.36 0 0 Z " fill="#FCC0BD" transform="translate(139,53)"/>
<path d="M0 0 C3.96 0 7.92 0 12 0 C12.33 0.99 12.66 1.98 13 3 C8.71 2.67 4.42 2.34 0 2 C0 1.34 0 0.68 0 0 Z " fill="#5E8225" transform="translate(128,2)"/>
<path d="M0 0 C-0.309375 0.598125 -0.61875 1.19625 -0.9375 1.8125 C-2.10209704 4.08956772 -2.10209704 4.08956772 -3 7 C-3.66 6.01 -4.32 5.02 -5 4 C-5.99 3.67 -6.98 3.34 -8 3 C-8 2.34 -8 1.68 -8 1 C-5.07175348 0.02391783 -3.04386724 -0.08226668 0 0 Z " fill="#A9BE73" transform="translate(137,37)"/>
<path d="M0 0 C3.3 0 6.6 0 10 0 C10 0.33 10 0.66 10 1 C7.69 1.66 5.38 2.32 3 3 C3 3.33 3 3.66 3 4 C1.35 4 -0.3 4 -2 4 C-1.34 2.68 -0.68 1.36 0 0 Z " fill="#86A556" transform="translate(118,37)"/>
<path d="M0 0 C1.2989839 0.90626784 2.58893167 1.82549537 3.875 2.75 C4.59429688 3.26046875 5.31359375 3.7709375 6.0546875 4.296875 C8.08570565 6.07503547 8.97855012 7.52701607 10 10 C6.17377257 8.4411666 3.74852621 6.04566418 1 3 C0.67 2.01 0.34 1.02 0 0 Z " fill="#991C1A" transform="translate(8,125)"/>
<path d="M0 0 C1.93359375 0.31640625 1.93359375 0.31640625 4 1 C4.71706982 2.98248715 5.38290413 4.98415349 6 7 C6.99 7.66 7.98 8.32 9 9 C6.75 9 6.75 9 4 8 C2.32801232 5.47332213 1.14194429 2.80063432 0 0 Z " fill="#8A3020" transform="translate(130,44)"/>
<path d="M0 0 C6.15234375 0.5859375 6.15234375 0.5859375 8 1 C8.33 1.66 8.66 2.32 9 3 C7.68 3 6.36 3 5 3 C5 3.99 5 4.98 5 6 C4.34 6 3.68 6 3 6 C3 4.68 3 3.36 3 2 C2.01 2 1.02 2 0 2 C0 1.34 0 0.68 0 0 Z " fill="#A33731" transform="translate(149,62)"/>
<path d="M0 0 C3.56521654 1.78260827 6.71455357 3.75992289 10 6 C8.68 6.33 7.36 6.66 6 7 C4.02 4.69 2.04 2.38 0 0 Z " fill="#C13432" transform="translate(8,124)"/>
<path d="M0 0 C-0.66 0 -1.32 0 -2 0 C-2.33 0.99 -2.66 1.98 -3 3 C-5.31 3.33 -7.62 3.66 -10 4 C-6.87839899 0.56623888 -4.64008112 -1.54669371 0 0 Z " fill="#809F49" transform="translate(148,30)"/>
<path d="M0 0 C2.64 0 5.28 0 8 0 C4.93882432 2.62386487 4.26826873 3 0 3 C0 2.01 0 1.02 0 0 Z " fill="#2F4A04" transform="translate(126,6)"/>
</svg>
