<?xml version="1.0" encoding="UTF-8"?>
<svg version="1.1" xmlns="http://www.w3.org/2000/svg" width="128" height="128">
<path d="M0 0 C12.94518407 9.75376735 22.74553589 23.99724492 25.41015625 40.22265625 C27.14200704 60.62195367 23.88668979 77.44691265 11.22265625 93.91015625 C1.31967836 105.53539117 -13.35073155 114.19976525 -28.58984375 116.22265625 C-48.03033869 117.61838409 -64.6797585 114.13452004 -80.40234375 102.03515625 C-92.6196818 91.43720026 -101.15503676 76.60765232 -102.89355469 60.3894043 C-103.02524843 57.53496723 -103.05799668 54.70489579 -103.02734375 51.84765625 C-103.01904541 50.84105957 -103.01074707 49.83446289 -103.00219727 48.79736328 C-102.82659436 41.04708828 -101.81314513 34.33878748 -98.58984375 27.22265625 C-98.10386719 26.13984375 -97.61789063 25.05703125 -97.1171875 23.94140625 C-88.88697564 7.28641488 -75.71848438 -3.17525434 -58.58984375 -9.77734375 C-38.33792323 -16.09663311 -17.17601607 -11.78746201 0 0 Z M-5.65234375 13.78515625 C-6.77318359 14.01267578 -7.89402344 14.24019531 -9.04882812 14.47460938 C-17.30997555 16.34222051 -23.10033903 19.16715358 -27.9934082 26.25610352 C-30.89071816 31.12237139 -31.05208066 35.67581329 -30.58984375 41.22265625 C-30.07421875 40.56265625 -29.55859375 39.90265625 -29.02734375 39.22265625 C-28.22296875 38.23265625 -27.41859375 37.24265625 -26.58984375 36.22265625 C-26.0690625 35.56007813 -25.54828125 34.8975 -25.01171875 34.21484375 C-21.2171488 29.58273358 -18.3028503 27.08812778 -12.58984375 25.22265625 C-13.14671875 25.90328125 -13.70359375 26.58390625 -14.27734375 27.28515625 C-28.17854878 44.94344372 -34.73724765 66.09644983 -41.58984375 87.22265625 C-44.79236694 79.14672821 -47.0868026 70.8366513 -49.453125 62.484375 C-54.71226622 44.33317554 -62.2923966 27.41973785 -78.30078125 16.34765625 C-79.05617188 15.97640625 -79.8115625 15.60515625 -80.58984375 15.22265625 C-81.57984375 15.71765625 -81.57984375 15.71765625 -82.58984375 16.22265625 C-81.99558594 16.91746094 -81.40132812 17.61226562 -80.7890625 18.328125 C-62.20442542 41.13260191 -54.93377391 68.35109482 -48.93457031 96.61303711 C-48.66999023 97.82354736 -48.40541016 99.03405762 -48.1328125 100.28125 C-47.9061792 101.35689209 -47.6795459 102.43253418 -47.44604492 103.54077148 C-46.34138018 107.02925277 -46.34138018 107.02925277 -43.58984375 109.22265625 C-40.44062466 108.98982476 -40.44062466 108.98982476 -37.58984375 108.22265625 C-37.43950684 107.41860352 -37.28916992 106.61455078 -37.13427734 105.78613281 C-31.20743685 74.38238993 -31.20743685 74.38238993 -26.25292969 60.15380859 C-25.66394846 58.43847667 -25.14144178 56.70064144 -24.62890625 54.9609375 C-23.57516983 52.07369972 -22.78943114 50.37632324 -20.58984375 48.22265625 C-16.84643948 46.5851855 -13.13504737 45.44723754 -9.20703125 44.359375 C-3.32866246 42.51206904 -0.07562004 39.7448521 3.01171875 34.50390625 C4.580806 30.82224903 5.09430996 27.63178054 5.53515625 23.66015625 C6.01657251 19.46676727 6.50751564 15.3478822 7.41015625 11.22265625 C3.12148722 11.22265625 -1.48733347 12.86141731 -5.65234375 13.78515625 Z " fill="#0E8148" transform="translate(102.58984375,11.77734375)"/>
</svg>
